<mxfile host="app.diagrams.net" modified="2021-04-11T22:25:48.789Z" agent="5.0 (Windows NT 10.0; Win64; x64) AppleWebKit/537.36 (KHTML, like Gecko) Chrome/89.0.4389.114 Safari/537.36" etag="xTuwC7I-8Bk9lz2bDHh5" version="13.3.5" type="github" pages="4">
  <diagram id="6-l2pUGqNB-Vnld5S5lD" name="mefPrincipal">
    <mxGraphModel dx="1753" dy="615" grid="1" gridSize="10" guides="1" tooltips="1" connect="1" arrows="1" fold="1" page="1" pageScale="1" pageWidth="827" pageHeight="1169" math="0" shadow="0">
      <root>
        <mxCell id="0" />
        <mxCell id="1" parent="0" />
        <mxCell id="enTkBFhbmoqaJD6fahnH-1" value="&lt;p style=&quot;margin: 4px 0px 0px ; text-align: center&quot;&gt;&lt;b&gt;mefPrincipal&lt;/b&gt;&lt;br&gt;&lt;/p&gt;&lt;hr&gt;&lt;p style=&quot;margin: 0px ; margin-left: 8px&quot;&gt;&lt;br&gt;&lt;/p&gt;" style="verticalAlign=top;align=left;overflow=fill;fontSize=12;fontFamily=Helvetica;html=1;" parent="1" vertex="1">
          <mxGeometry x="110" y="150" width="770" height="630" as="geometry" />
        </mxCell>
        <mxCell id="enTkBFhbmoqaJD6fahnH-2" style="edgeStyle=orthogonalEdgeStyle;rounded=0;orthogonalLoop=1;jettySize=auto;html=1;entryX=0.5;entryY=0;entryDx=0;entryDy=0;" parent="1" source="enTkBFhbmoqaJD6fahnH-3" target="enTkBFhbmoqaJD6fahnH-7" edge="1">
          <mxGeometry relative="1" as="geometry" />
        </mxCell>
        <mxCell id="enTkBFhbmoqaJD6fahnH-3" value="&lt;p style=&quot;margin: 4px 0px 0px ; text-align: center&quot;&gt;&lt;b&gt;MEF_HABITUAL&lt;/b&gt;&lt;br&gt;&lt;/p&gt;&lt;hr&gt;&lt;p style=&quot;margin: 0px ; margin-left: 8px&quot;&gt;&lt;br&gt;&lt;/p&gt;" style="verticalAlign=top;align=left;overflow=fill;fontSize=12;fontFamily=Helvetica;html=1;" parent="1" vertex="1">
          <mxGeometry x="380" y="220" width="230" height="160" as="geometry" />
        </mxCell>
        <mxCell id="enTkBFhbmoqaJD6fahnH-4" style="edgeStyle=orthogonalEdgeStyle;rounded=0;orthogonalLoop=1;jettySize=auto;html=1;entryX=0.75;entryY=1;entryDx=0;entryDy=0;" parent="1" source="enTkBFhbmoqaJD6fahnH-5" target="enTkBFhbmoqaJD6fahnH-3" edge="1">
          <mxGeometry relative="1" as="geometry" />
        </mxCell>
        <mxCell id="enTkBFhbmoqaJD6fahnH-5" value="&lt;p style=&quot;margin: 4px 0px 0px ; text-align: center&quot;&gt;&lt;b&gt;MEF_PULSADOR&lt;/b&gt;&lt;br&gt;&lt;/p&gt;&lt;hr&gt;&lt;p style=&quot;margin: 0px ; margin-left: 8px&quot;&gt;&lt;br&gt;&lt;/p&gt;" style="verticalAlign=top;align=left;overflow=fill;fontSize=12;fontFamily=Helvetica;html=1;" parent="1" vertex="1">
          <mxGeometry x="620" y="570" width="230" height="160" as="geometry" />
        </mxCell>
        <mxCell id="enTkBFhbmoqaJD6fahnH-6" style="edgeStyle=orthogonalEdgeStyle;rounded=0;orthogonalLoop=1;jettySize=auto;html=1;" parent="1" source="enTkBFhbmoqaJD6fahnH-7" target="enTkBFhbmoqaJD6fahnH-13" edge="1">
          <mxGeometry relative="1" as="geometry" />
        </mxCell>
        <mxCell id="enTkBFhbmoqaJD6fahnH-7" value="&lt;p style=&quot;margin: 4px 0px 0px ; text-align: center&quot;&gt;&lt;b&gt;MEF_SENSOR&lt;/b&gt;&lt;br&gt;&lt;/p&gt;&lt;hr&gt;&lt;p style=&quot;margin: 0px ; margin-left: 8px&quot;&gt;&lt;br&gt;&lt;/p&gt;" style="verticalAlign=top;align=left;overflow=fill;fontSize=12;fontFamily=Helvetica;html=1;" parent="1" vertex="1">
          <mxGeometry x="140" y="570" width="238" height="160" as="geometry" />
        </mxCell>
        <mxCell id="enTkBFhbmoqaJD6fahnH-8" value="key_getPressEv(BOARD_SW_ID_1) &amp;amp;&amp;amp; PrimerCorte &amp;amp;&amp;amp; Habilitado /&lt;br&gt;temp_aux = TEMP_5SEG,&lt;br&gt;Sec = false,&lt;br&gt;PrimerCorte = false," style="text;html=1;strokeColor=none;fillColor=none;align=center;verticalAlign=middle;whiteSpace=wrap;rounded=0;" parent="1" vertex="1">
          <mxGeometry x="640" y="230" width="230" height="50" as="geometry" />
        </mxCell>
        <mxCell id="enTkBFhbmoqaJD6fahnH-9" value="AutosAcumulados() &amp;amp;&amp;amp; PrimerCorte /&lt;br&gt;temp_aux = TEMP_10SEG,&lt;br&gt;Sec = false,&lt;br&gt;Habitual = false,&lt;br&gt;PrimerCorte = false,&lt;br&gt;" style="text;html=1;strokeColor=none;fillColor=none;align=center;verticalAlign=middle;whiteSpace=wrap;rounded=0;" parent="1" vertex="1">
          <mxGeometry x="100" y="230" width="230" height="60" as="geometry" />
        </mxCell>
        <mxCell id="enTkBFhbmoqaJD6fahnH-10" style="edgeStyle=orthogonalEdgeStyle;rounded=0;orthogonalLoop=1;jettySize=auto;html=1;entryX=0.5;entryY=0;entryDx=0;entryDy=0;" parent="1" source="enTkBFhbmoqaJD6fahnH-3" target="enTkBFhbmoqaJD6fahnH-5" edge="1">
          <mxGeometry relative="1" as="geometry" />
        </mxCell>
        <mxCell id="enTkBFhbmoqaJD6fahnH-11" value="Sec / Inicio = true" style="text;html=1;strokeColor=none;fillColor=none;align=center;verticalAlign=middle;whiteSpace=wrap;rounded=0;" parent="1" vertex="1">
          <mxGeometry x="320" y="490" width="130" height="20" as="geometry" />
        </mxCell>
        <mxCell id="enTkBFhbmoqaJD6fahnH-12" value="Sec / Habitual = true&lt;br&gt;" style="text;html=1;strokeColor=none;fillColor=none;align=center;verticalAlign=middle;whiteSpace=wrap;rounded=0;" parent="1" vertex="1">
          <mxGeometry x="550" y="490" width="140" height="20" as="geometry" />
        </mxCell>
        <mxCell id="enTkBFhbmoqaJD6fahnH-13" value="&lt;p style=&quot;margin: 4px 0px 0px ; text-align: center ; font-size: 11px&quot;&gt;&lt;font style=&quot;font-size: 11px&quot;&gt;CARRETERA_PASO&lt;br&gt;&lt;/font&gt;&lt;/p&gt;&lt;hr style=&quot;font-size: 11px&quot;&gt;&lt;p style=&quot;margin: 0px 0px 0px 8px ; font-size: 11px&quot;&gt;&lt;br&gt;&lt;/p&gt;" style="verticalAlign=top;align=left;overflow=fill;fontSize=12;fontFamily=Helvetica;html=1;" parent="1" vertex="1">
          <mxGeometry x="390" y="255" width="110" height="45" as="geometry" />
        </mxCell>
        <mxCell id="enTkBFhbmoqaJD6fahnH-14" value="" style="ellipse;html=1;shape=startState;fillColor=#000000;strokeColor=#ff0000;" parent="1" vertex="1">
          <mxGeometry x="560" y="250" width="30" height="30" as="geometry" />
        </mxCell>
        <mxCell id="enTkBFhbmoqaJD6fahnH-15" value="" style="edgeStyle=orthogonalEdgeStyle;html=1;verticalAlign=bottom;endArrow=open;endSize=8;strokeColor=#ff0000;entryX=1;entryY=0.5;entryDx=0;entryDy=0;" parent="1" source="enTkBFhbmoqaJD6fahnH-14" target="enTkBFhbmoqaJD6fahnH-13" edge="1">
          <mxGeometry relative="1" as="geometry">
            <mxPoint x="575" y="340" as="targetPoint" />
          </mxGeometry>
        </mxCell>
      </root>
    </mxGraphModel>
  </diagram>
  <diagram id="tbWie4mEAe-4opdXw_fp" name="mefSecuencia">
    <mxGraphModel dx="1031" dy="824" grid="1" gridSize="10" guides="1" tooltips="1" connect="1" arrows="1" fold="1" page="1" pageScale="1" pageWidth="827" pageHeight="1169" math="0" shadow="0">
      <root>
        <mxCell id="KXjWTqVIY6V51kZ3jd-9-0" />
        <mxCell id="KXjWTqVIY6V51kZ3jd-9-1" parent="KXjWTqVIY6V51kZ3jd-9-0" />
        <mxCell id="Q_MfEXzK4iUWqjaM7ygo-0" value="&lt;p style=&quot;margin: 4px 0px 0px ; text-align: center&quot;&gt;&lt;b&gt;mefSecuencia&lt;/b&gt;&lt;br&gt;&lt;/p&gt;&lt;hr&gt;&lt;p style=&quot;margin: 0px ; margin-left: 8px&quot;&gt;&lt;br&gt;&lt;/p&gt;" style="verticalAlign=top;align=left;overflow=fill;fontSize=12;fontFamily=Helvetica;html=1;" parent="KXjWTqVIY6V51kZ3jd-9-1" vertex="1">
          <mxGeometry x="340" y="90" width="960" height="890" as="geometry" />
        </mxCell>
        <mxCell id="Q_MfEXzK4iUWqjaM7ygo-1" style="edgeStyle=orthogonalEdgeStyle;rounded=0;orthogonalLoop=1;jettySize=auto;html=1;exitX=0.5;exitY=1;exitDx=0;exitDy=0;entryX=0.5;entryY=0;entryDx=0;entryDy=0;" parent="KXjWTqVIY6V51kZ3jd-9-1" source="Q_MfEXzK4iUWqjaM7ygo-4" target="Q_MfEXzK4iUWqjaM7ygo-5" edge="1">
          <mxGeometry relative="1" as="geometry" />
        </mxCell>
        <mxCell id="Q_MfEXzK4iUWqjaM7ygo-2" style="edgeStyle=orthogonalEdgeStyle;rounded=0;orthogonalLoop=1;jettySize=auto;html=1;exitX=0.5;exitY=1;exitDx=0;exitDy=0;entryX=0.5;entryY=0;entryDx=0;entryDy=0;" parent="KXjWTqVIY6V51kZ3jd-9-1" source="Q_MfEXzK4iUWqjaM7ygo-5" target="Q_MfEXzK4iUWqjaM7ygo-7" edge="1">
          <mxGeometry relative="1" as="geometry" />
        </mxCell>
        <mxCell id="Q_MfEXzK4iUWqjaM7ygo-3" style="edgeStyle=orthogonalEdgeStyle;rounded=0;orthogonalLoop=1;jettySize=auto;html=1;exitX=0.5;exitY=1;exitDx=0;exitDy=0;entryX=0.5;entryY=0;entryDx=0;entryDy=0;" parent="KXjWTqVIY6V51kZ3jd-9-1" source="Q_MfEXzK4iUWqjaM7ygo-7" target="Q_MfEXzK4iUWqjaM7ygo-8" edge="1">
          <mxGeometry relative="1" as="geometry" />
        </mxCell>
        <mxCell id="Q_MfEXzK4iUWqjaM7ygo-9" style="edgeStyle=orthogonalEdgeStyle;rounded=0;orthogonalLoop=1;jettySize=auto;html=1;entryX=0;entryY=0.5;entryDx=0;entryDy=0;" parent="KXjWTqVIY6V51kZ3jd-9-1" target="Q_MfEXzK4iUWqjaM7ygo-4" edge="1">
          <mxGeometry relative="1" as="geometry">
            <mxPoint x="770" y="820" as="sourcePoint" />
            <mxPoint x="703" y="180" as="targetPoint" />
            <Array as="points">
              <mxPoint x="610" y="820" />
              <mxPoint x="610" y="205" />
            </Array>
          </mxGeometry>
        </mxCell>
        <mxCell id="Q_MfEXzK4iUWqjaM7ygo-10" style="edgeStyle=orthogonalEdgeStyle;rounded=0;orthogonalLoop=1;jettySize=auto;html=1;exitX=1;exitY=0.75;exitDx=0;exitDy=0;" parent="KXjWTqVIY6V51kZ3jd-9-1" edge="1">
          <mxGeometry relative="1" as="geometry">
            <mxPoint x="930" y="190" as="targetPoint" />
            <mxPoint x="930" y="230" as="sourcePoint" />
            <Array as="points">
              <mxPoint x="980" y="230" />
            </Array>
          </mxGeometry>
        </mxCell>
        <mxCell id="Q_MfEXzK4iUWqjaM7ygo-11" style="edgeStyle=orthogonalEdgeStyle;rounded=0;orthogonalLoop=1;jettySize=auto;html=1;exitX=1;exitY=0.75;exitDx=0;exitDy=0;" parent="KXjWTqVIY6V51kZ3jd-9-1" edge="1">
          <mxGeometry relative="1" as="geometry">
            <mxPoint x="930" y="400" as="targetPoint" />
            <mxPoint x="930" y="440" as="sourcePoint" />
            <Array as="points">
              <mxPoint x="980" y="440" />
            </Array>
          </mxGeometry>
        </mxCell>
        <mxCell id="Q_MfEXzK4iUWqjaM7ygo-12" style="edgeStyle=orthogonalEdgeStyle;rounded=0;orthogonalLoop=1;jettySize=auto;html=1;exitX=1;exitY=0.75;exitDx=0;exitDy=0;" parent="KXjWTqVIY6V51kZ3jd-9-1" edge="1">
          <mxGeometry relative="1" as="geometry">
            <mxPoint x="930" y="600" as="targetPoint" />
            <mxPoint x="930" y="640" as="sourcePoint" />
            <Array as="points">
              <mxPoint x="980" y="640" />
            </Array>
          </mxGeometry>
        </mxCell>
        <mxCell id="Q_MfEXzK4iUWqjaM7ygo-13" style="edgeStyle=orthogonalEdgeStyle;rounded=0;orthogonalLoop=1;jettySize=auto;html=1;exitX=1;exitY=0.75;exitDx=0;exitDy=0;" parent="KXjWTqVIY6V51kZ3jd-9-1" edge="1">
          <mxGeometry relative="1" as="geometry">
            <mxPoint x="930" y="800" as="targetPoint" />
            <mxPoint x="930" y="840" as="sourcePoint" />
            <Array as="points">
              <mxPoint x="980" y="840" />
            </Array>
          </mxGeometry>
        </mxCell>
        <mxCell id="Q_MfEXzK4iUWqjaM7ygo-14" style="edgeStyle=orthogonalEdgeStyle;rounded=0;orthogonalLoop=1;jettySize=auto;html=1;" parent="KXjWTqVIY6V51kZ3jd-9-1" edge="1">
          <mxGeometry relative="1" as="geometry">
            <mxPoint x="840" y="870" as="targetPoint" />
            <mxPoint x="880" y="870" as="sourcePoint" />
            <Array as="points">
              <mxPoint x="880" y="920" />
              <mxPoint x="840" y="920" />
            </Array>
          </mxGeometry>
        </mxCell>
        <mxCell id="Q_MfEXzK4iUWqjaM7ygo-15" value="key_getPressEv(BOARD_SW_ID_3) /&lt;br&gt;Autos ++" style="text;html=1;align=center;verticalAlign=middle;resizable=0;points=[];autosize=1;" parent="KXjWTqVIY6V51kZ3jd-9-1" vertex="1">
          <mxGeometry x="985" y="200" width="220" height="30" as="geometry" />
        </mxCell>
        <mxCell id="Q_MfEXzK4iUWqjaM7ygo-16" value="temp_sec == 0 /&amp;nbsp;temp_sec = TEMP_5SEG,&lt;br&gt;&amp;nbsp; &amp;nbsp; &amp;nbsp; &amp;nbsp; &amp;nbsp; &amp;nbsp; &amp;nbsp;Habilitado = false" style="text;html=1;align=center;verticalAlign=middle;resizable=0;points=[];autosize=1;" parent="KXjWTqVIY6V51kZ3jd-9-1" vertex="1">
          <mxGeometry x="855" y="290" width="250" height="30" as="geometry" />
        </mxCell>
        <mxCell id="Q_MfEXzK4iUWqjaM7ygo-17" value="key_getPressEv(BOARD_SW_ID_3) /&lt;br&gt;Autos ++" style="text;html=1;align=center;verticalAlign=middle;resizable=0;points=[];autosize=1;" parent="KXjWTqVIY6V51kZ3jd-9-1" vertex="1">
          <mxGeometry x="985" y="410" width="220" height="30" as="geometry" />
        </mxCell>
        <mxCell id="Q_MfEXzK4iUWqjaM7ygo-18" value="temp_blink == 0 /&lt;br&gt;&amp;nbsp; &amp;nbsp; &amp;nbsp; &amp;nbsp;&amp;nbsp;&lt;span&gt;		&lt;/span&gt;temp_blink = TEMP_BLINK&lt;br&gt;LVR TOGGLE" style="text;html=1;align=center;verticalAlign=middle;resizable=0;points=[];autosize=1;" parent="KXjWTqVIY6V51kZ3jd-9-1" vertex="1">
          <mxGeometry x="580" y="430" width="190" height="50" as="geometry" />
        </mxCell>
        <mxCell id="Q_MfEXzK4iUWqjaM7ygo-19" value="key_getPressEv(BOARD_SW_ID_3) &amp;amp;&amp;amp; Autos&amp;nbsp;&amp;gt; 0 /&lt;br&gt;Autos --" style="text;html=1;align=center;verticalAlign=middle;resizable=0;points=[];autosize=1;" parent="KXjWTqVIY6V51kZ3jd-9-1" vertex="1">
          <mxGeometry x="980" y="610" width="290" height="30" as="geometry" />
        </mxCell>
        <mxCell id="Q_MfEXzK4iUWqjaM7ygo-20" value="temp_blink == 0 /&lt;br&gt;&amp;nbsp; &amp;nbsp; &amp;nbsp; &amp;nbsp;&amp;nbsp;&lt;span&gt;		&lt;/span&gt;temp_blink = TEMP_BLINK&lt;br&gt;LVS TOGGLE" style="text;html=1;align=center;verticalAlign=middle;resizable=0;points=[];autosize=1;" parent="KXjWTqVIY6V51kZ3jd-9-1" vertex="1">
          <mxGeometry x="755" y="920" width="190" height="50" as="geometry" />
        </mxCell>
        <mxCell id="Q_MfEXzK4iUWqjaM7ygo-21" value="temp_sec == 0 /&amp;nbsp;temp_sec = TEMP_30SEG" style="text;html=1;align=center;verticalAlign=middle;resizable=0;points=[];autosize=1;" parent="KXjWTqVIY6V51kZ3jd-9-1" vertex="1">
          <mxGeometry x="855" y="495" width="250" height="20" as="geometry" />
        </mxCell>
        <mxCell id="Q_MfEXzK4iUWqjaM7ygo-22" value="temp_sec == 0 /&amp;nbsp;temp_sec = TEMP_5SEG" style="text;html=1;align=center;verticalAlign=middle;resizable=0;points=[];autosize=1;" parent="KXjWTqVIY6V51kZ3jd-9-1" vertex="1">
          <mxGeometry x="860" y="700" width="240" height="20" as="geometry" />
        </mxCell>
        <mxCell id="Q_MfEXzK4iUWqjaM7ygo-23" value="temp_sec == 0 /&amp;nbsp;temp_sec = TEMP_3MIN,&lt;br&gt;&amp;nbsp; &amp;nbsp; &amp;nbsp; &amp;nbsp; &amp;nbsp; &amp;nbsp; &amp;nbsp; &amp;nbsp;PrimerCorte = true" style="text;html=1;align=center;verticalAlign=middle;resizable=0;points=[];autosize=1;" parent="KXjWTqVIY6V51kZ3jd-9-1" vertex="1">
          <mxGeometry x="360" y="260" width="240" height="30" as="geometry" />
        </mxCell>
        <mxCell id="Q_MfEXzK4iUWqjaM7ygo-24" value="key_getPressEv(BOARD_SW_ID_3) &amp;amp;&amp;amp; Autos&amp;nbsp;&amp;gt; 0 /&lt;br&gt;Autos --" style="text;html=1;align=center;verticalAlign=middle;resizable=0;points=[];autosize=1;" parent="KXjWTqVIY6V51kZ3jd-9-1" vertex="1">
          <mxGeometry x="985" y="810" width="290" height="30" as="geometry" />
        </mxCell>
        <mxCell id="Q_MfEXzK4iUWqjaM7ygo-4" value="CARRETERA_PASO" style="swimlane;childLayout=stackLayout;horizontal=1;startSize=30;horizontalStack=0;rounded=1;fontSize=14;fontStyle=0;strokeWidth=2;resizeParent=0;resizeLast=1;shadow=0;dashed=0;align=center;" parent="KXjWTqVIY6V51kZ3jd-9-1" vertex="1">
          <mxGeometry x="770" y="140" width="160" height="130" as="geometry" />
        </mxCell>
        <mxCell id="Q_MfEXzK4iUWqjaM7ygo-5" value="CARRETERA_CORTE" style="swimlane;childLayout=stackLayout;horizontal=1;startSize=30;horizontalStack=0;rounded=1;fontSize=14;fontStyle=0;strokeWidth=2;resizeParent=0;resizeLast=1;shadow=0;dashed=0;align=center;" parent="KXjWTqVIY6V51kZ3jd-9-1" vertex="1">
          <mxGeometry x="770" y="350" width="160" height="120" as="geometry" />
        </mxCell>
        <mxCell id="Q_MfEXzK4iUWqjaM7ygo-6" style="edgeStyle=orthogonalEdgeStyle;rounded=0;orthogonalLoop=1;jettySize=auto;html=1;exitX=1;exitY=0.75;exitDx=0;exitDy=0;" parent="Q_MfEXzK4iUWqjaM7ygo-5" edge="1">
          <mxGeometry relative="1" as="geometry">
            <mxPoint y="50" as="targetPoint" />
            <mxPoint y="90" as="sourcePoint" />
            <Array as="points">
              <mxPoint x="-50" y="90" />
              <mxPoint x="-50" y="50" />
            </Array>
          </mxGeometry>
        </mxCell>
        <mxCell id="Q_MfEXzK4iUWqjaM7ygo-7" value="CAMINO_PASO" style="swimlane;childLayout=stackLayout;horizontal=1;startSize=30;horizontalStack=0;rounded=1;fontSize=14;fontStyle=0;strokeWidth=2;resizeParent=0;resizeLast=1;shadow=0;dashed=0;align=center;" parent="KXjWTqVIY6V51kZ3jd-9-1" vertex="1">
          <mxGeometry x="770" y="550" width="160" height="120" as="geometry" />
        </mxCell>
        <mxCell id="Q_MfEXzK4iUWqjaM7ygo-8" value="CAMINO_CORTE" style="swimlane;childLayout=stackLayout;horizontal=1;startSize=30;horizontalStack=0;rounded=1;fontSize=14;fontStyle=0;strokeWidth=2;resizeParent=0;resizeLast=1;shadow=0;dashed=0;align=center;" parent="KXjWTqVIY6V51kZ3jd-9-1" vertex="1">
          <mxGeometry x="770" y="750" width="160" height="120" as="geometry" />
        </mxCell>
      </root>
    </mxGraphModel>
  </diagram>
  <diagram id="foXhFHE3rszLbqPqSpfs" name="mefPulsador">
    <mxGraphModel dx="191" dy="1138" grid="1" gridSize="10" guides="1" tooltips="1" connect="1" arrows="1" fold="1" page="1" pageScale="1" pageWidth="827" pageHeight="1169" math="0" shadow="0">
      <root>
        <mxCell id="J_A7dEYYWQMnk8cw7si9-0" />
        <mxCell id="J_A7dEYYWQMnk8cw7si9-1" parent="J_A7dEYYWQMnk8cw7si9-0" />
        <mxCell id="aDa9syOxCxK5AMAdPEvP-0" value="&lt;p style=&quot;margin: 4px 0px 0px ; text-align: center&quot;&gt;&lt;b&gt;mefPulsador&lt;/b&gt;&lt;br&gt;&lt;/p&gt;&lt;hr&gt;&lt;p style=&quot;margin: 0px ; margin-left: 8px&quot;&gt;&lt;br&gt;&lt;/p&gt;" style="verticalAlign=top;align=left;overflow=fill;fontSize=12;fontFamily=Helvetica;html=1;" vertex="1" parent="J_A7dEYYWQMnk8cw7si9-1">
          <mxGeometry x="1180" y="280" width="910" height="700" as="geometry" />
        </mxCell>
        <mxCell id="aDa9syOxCxK5AMAdPEvP-1" style="edgeStyle=orthogonalEdgeStyle;rounded=0;orthogonalLoop=1;jettySize=auto;html=1;exitX=1;exitY=0.75;exitDx=0;exitDy=0;" edge="1" parent="J_A7dEYYWQMnk8cw7si9-1" source="aDa9syOxCxK5AMAdPEvP-16">
          <mxGeometry relative="1" as="geometry">
            <mxPoint x="1700" y="396.5" as="targetPoint" />
            <Array as="points">
              <mxPoint x="1750" y="436.5" />
            </Array>
          </mxGeometry>
        </mxCell>
        <mxCell id="aDa9syOxCxK5AMAdPEvP-2" style="edgeStyle=orthogonalEdgeStyle;rounded=0;orthogonalLoop=1;jettySize=auto;html=1;exitX=0.5;exitY=1;exitDx=0;exitDy=0;entryX=0.5;entryY=0;entryDx=0;entryDy=0;" edge="1" parent="J_A7dEYYWQMnk8cw7si9-1" source="aDa9syOxCxK5AMAdPEvP-16" target="aDa9syOxCxK5AMAdPEvP-17">
          <mxGeometry relative="1" as="geometry" />
        </mxCell>
        <mxCell id="aDa9syOxCxK5AMAdPEvP-3" style="edgeStyle=orthogonalEdgeStyle;rounded=0;orthogonalLoop=1;jettySize=auto;html=1;exitX=0.5;exitY=1;exitDx=0;exitDy=0;entryX=0.5;entryY=0;entryDx=0;entryDy=0;" edge="1" parent="J_A7dEYYWQMnk8cw7si9-1" source="aDa9syOxCxK5AMAdPEvP-17" target="aDa9syOxCxK5AMAdPEvP-18">
          <mxGeometry relative="1" as="geometry" />
        </mxCell>
        <mxCell id="aDa9syOxCxK5AMAdPEvP-4" style="edgeStyle=orthogonalEdgeStyle;rounded=0;orthogonalLoop=1;jettySize=auto;html=1;exitX=1;exitY=0.75;exitDx=0;exitDy=0;" edge="1" parent="J_A7dEYYWQMnk8cw7si9-1">
          <mxGeometry relative="1" as="geometry">
            <mxPoint x="1699" y="596.5" as="targetPoint" />
            <mxPoint x="1699" y="636.5" as="sourcePoint" />
            <Array as="points">
              <mxPoint x="1749" y="636.5" />
            </Array>
          </mxGeometry>
        </mxCell>
        <mxCell id="aDa9syOxCxK5AMAdPEvP-5" style="edgeStyle=orthogonalEdgeStyle;rounded=0;orthogonalLoop=1;jettySize=auto;html=1;exitX=1;exitY=0.75;exitDx=0;exitDy=0;" edge="1" parent="J_A7dEYYWQMnk8cw7si9-1">
          <mxGeometry relative="1" as="geometry">
            <mxPoint x="1699" y="796.5" as="targetPoint" />
            <mxPoint x="1699" y="836.5" as="sourcePoint" />
            <Array as="points">
              <mxPoint x="1749" y="836.5" />
            </Array>
          </mxGeometry>
        </mxCell>
        <mxCell id="aDa9syOxCxK5AMAdPEvP-6" value="temp_blink == 0 /&lt;br&gt;&amp;nbsp; &amp;nbsp; &amp;nbsp; &amp;nbsp;&amp;nbsp;&lt;span&gt;		&lt;/span&gt;temp_blink = TEMP_BLINK&lt;br&gt;LVR TOGGLE" style="text;html=1;align=center;verticalAlign=middle;resizable=0;points=[];autosize=1;" vertex="1" parent="J_A7dEYYWQMnk8cw7si9-1">
          <mxGeometry x="1720" y="396.5" width="190" height="50" as="geometry" />
        </mxCell>
        <mxCell id="aDa9syOxCxK5AMAdPEvP-7" value="temp_aux == 0 /&amp;nbsp;temp_aux = TEMP_1MIN" style="text;html=1;align=center;verticalAlign=middle;resizable=0;points=[];autosize=1;" vertex="1" parent="J_A7dEYYWQMnk8cw7si9-1">
          <mxGeometry x="1620" y="496.5" width="240" height="20" as="geometry" />
        </mxCell>
        <mxCell id="aDa9syOxCxK5AMAdPEvP-8" value="key_getPressEv(BOARD_SW_ID_3) &amp;amp;&amp;amp; Autos&amp;nbsp;&amp;gt; 0 /&lt;br&gt;Autos --" style="text;html=1;align=center;verticalAlign=middle;resizable=0;points=[];autosize=1;" vertex="1" parent="J_A7dEYYWQMnk8cw7si9-1">
          <mxGeometry x="1750" y="596.5" width="290" height="30" as="geometry" />
        </mxCell>
        <mxCell id="aDa9syOxCxK5AMAdPEvP-9" value="temp_aux == 0 /&amp;nbsp;temp_aux = TEMP_10SEG" style="text;html=1;align=center;verticalAlign=middle;resizable=0;points=[];autosize=1;" vertex="1" parent="J_A7dEYYWQMnk8cw7si9-1">
          <mxGeometry x="1620" y="686.5" width="250" height="20" as="geometry" />
        </mxCell>
        <mxCell id="aDa9syOxCxK5AMAdPEvP-10" style="edgeStyle=orthogonalEdgeStyle;rounded=0;orthogonalLoop=1;jettySize=auto;html=1;" edge="1" parent="J_A7dEYYWQMnk8cw7si9-1">
          <mxGeometry relative="1" as="geometry">
            <mxPoint x="1650" y="866.5" as="targetPoint" />
            <mxPoint x="1604" y="866.5" as="sourcePoint" />
            <Array as="points">
              <mxPoint x="1590" y="866.5" />
              <mxPoint x="1590" y="906.5" />
              <mxPoint x="1650" y="906.5" />
              <mxPoint x="1650" y="866.5" />
            </Array>
          </mxGeometry>
        </mxCell>
        <mxCell id="aDa9syOxCxK5AMAdPEvP-11" value="key_getPressEv(BOARD_SW_ID_3) &amp;amp;&amp;amp; Autos&amp;nbsp;&amp;gt; 0 /&lt;br&gt;Autos --" style="text;html=1;align=center;verticalAlign=middle;resizable=0;points=[];autosize=1;" vertex="1" parent="J_A7dEYYWQMnk8cw7si9-1">
          <mxGeometry x="1750" y="796.5" width="290" height="30" as="geometry" />
        </mxCell>
        <mxCell id="aDa9syOxCxK5AMAdPEvP-12" value="&lt;span style=&quot;color: rgba(0 , 0 , 0 , 0) ; font-family: monospace ; font-size: 0px&quot;&gt;%3CmxGraphModel%3E%3Croot%3E%3CmxCell%20id%3D%220%22%2F%3E%3CmxCell%20id%3D%221%22%20parent%3D%220%22%2F%3E%3CmxCell%20id%3D%222%22%20value%3D%22temp_blink%20%3D%3D%200%20%2F%26lt%3Bbr%26gt%3B%26amp%3Bnbsp%3B%20%26amp%3Bnbsp%3B%20%26amp%3Bnbsp%3B%20%26amp%3Bnbsp%3B%26amp%3Bnbsp%3B%26lt%3Bspan%26gt%3B%26%239%3B%26%239%3B%26lt%3B%2Fspan%26gt%3Btemp_blink%20%3D%20TEMP_BLINK%26lt%3Bbr%26gt%3BLVR%20TOGGLE%22%20style%3D%22text%3Bhtml%3D1%3Balign%3Dcenter%3BverticalAlign%3Dmiddle%3Bresizable%3D0%3Bpoints%3D%5B%5D%3Bautosize%3D1%3B%22%20vertex%3D%221%22%20parent%3D%221%22%3E%3CmxGeometry%20x%3D%22490%22%20y%3D%22100%22%20width%3D%22190%22%20height%3D%2250%22%20as%3D%22geometry%22%2F%3E%3C%2FmxCell%3E%3C%2Froot%3E%3C%2FmxGraphModel%3E&lt;/span&gt;" style="text;html=1;align=center;verticalAlign=middle;resizable=0;points=[];autosize=1;" vertex="1" parent="J_A7dEYYWQMnk8cw7si9-1">
          <mxGeometry x="1667" y="943.5" width="20" height="20" as="geometry" />
        </mxCell>
        <mxCell id="aDa9syOxCxK5AMAdPEvP-13" value="temp_blink == 0 /&lt;br&gt;&amp;nbsp; &amp;nbsp; &amp;nbsp; &amp;nbsp;&amp;nbsp;&lt;span&gt;		&lt;/span&gt;temp_blink = TEMP_BLINK&lt;br&gt;LRR TOGGLE" style="text;html=1;align=center;verticalAlign=middle;resizable=0;points=[];autosize=1;" vertex="1" parent="J_A7dEYYWQMnk8cw7si9-1">
          <mxGeometry x="1525" y="913.5" width="190" height="50" as="geometry" />
        </mxCell>
        <mxCell id="aDa9syOxCxK5AMAdPEvP-14" style="edgeStyle=orthogonalEdgeStyle;rounded=0;orthogonalLoop=1;jettySize=auto;html=1;" edge="1" parent="J_A7dEYYWQMnk8cw7si9-1">
          <mxGeometry relative="1" as="geometry">
            <mxPoint x="1540" y="814" as="sourcePoint" />
            <mxPoint x="1540" y="416.5" as="targetPoint" />
            <Array as="points">
              <mxPoint x="1470" y="814.5" />
              <mxPoint x="1470" y="416.5" />
            </Array>
          </mxGeometry>
        </mxCell>
        <mxCell id="aDa9syOxCxK5AMAdPEvP-15" value="temp_aux == 0 /&amp;nbsp;temp_aux = TEMP_10SEG,&lt;br&gt;Sec = true" style="text;html=1;align=center;verticalAlign=middle;resizable=0;points=[];autosize=1;" vertex="1" parent="J_A7dEYYWQMnk8cw7si9-1">
          <mxGeometry x="1220" y="556.5" width="250" height="30" as="geometry" />
        </mxCell>
        <mxCell id="aDa9syOxCxK5AMAdPEvP-16" value="PEATONES_AVISO" style="swimlane;childLayout=stackLayout;horizontal=1;startSize=30;horizontalStack=0;rounded=1;fontSize=14;fontStyle=0;strokeWidth=2;resizeParent=0;resizeLast=1;shadow=0;dashed=0;align=center;" vertex="1" parent="J_A7dEYYWQMnk8cw7si9-1">
          <mxGeometry x="1540" y="346.5" width="160" height="120" as="geometry" />
        </mxCell>
        <mxCell id="aDa9syOxCxK5AMAdPEvP-17" value="PEATONES_PASO" style="swimlane;childLayout=stackLayout;horizontal=1;startSize=30;horizontalStack=0;rounded=1;fontSize=14;fontStyle=0;strokeWidth=2;resizeParent=0;resizeLast=1;shadow=0;dashed=0;align=center;" vertex="1" parent="J_A7dEYYWQMnk8cw7si9-1">
          <mxGeometry x="1540" y="546.5" width="160" height="120" as="geometry" />
        </mxCell>
        <mxCell id="aDa9syOxCxK5AMAdPEvP-18" value="PEATONES_CORTE" style="swimlane;childLayout=stackLayout;horizontal=1;startSize=30;horizontalStack=0;rounded=1;fontSize=14;fontStyle=0;strokeWidth=2;resizeParent=0;resizeLast=1;shadow=0;dashed=0;align=center;" vertex="1" parent="J_A7dEYYWQMnk8cw7si9-1">
          <mxGeometry x="1540" y="746.5" width="160" height="120" as="geometry" />
        </mxCell>
      </root>
    </mxGraphModel>
  </diagram>
  <diagram id="5T09vuA5MFuDq0joUBYG" name="mefSensor">
    <mxGraphModel dx="446" dy="1423" grid="1" gridSize="10" guides="1" tooltips="1" connect="1" arrows="1" fold="1" page="1" pageScale="1" pageWidth="827" pageHeight="1169" math="0" shadow="0">
      <root>
        <mxCell id="EyzkFN8rhLwsbmcGBCVb-0" />
        <mxCell id="EyzkFN8rhLwsbmcGBCVb-1" parent="EyzkFN8rhLwsbmcGBCVb-0" />
        <mxCell id="G2aimLRCcps8fE1EPNxw-0" value="&lt;p style=&quot;margin: 4px 0px 0px ; text-align: center&quot;&gt;&lt;b&gt;mefSensor&lt;/b&gt;&lt;br&gt;&lt;/p&gt;&lt;hr&gt;&lt;p style=&quot;margin: 0px ; margin-left: 8px&quot;&gt;&lt;br&gt;&lt;/p&gt;" style="verticalAlign=top;align=left;overflow=fill;fontSize=12;fontFamily=Helvetica;html=1;" vertex="1" parent="EyzkFN8rhLwsbmcGBCVb-1">
          <mxGeometry x="900" y="150" width="910" height="700" as="geometry" />
        </mxCell>
        <mxCell id="G2aimLRCcps8fE1EPNxw-1" style="edgeStyle=orthogonalEdgeStyle;rounded=0;orthogonalLoop=1;jettySize=auto;html=1;exitX=1;exitY=0.75;exitDx=0;exitDy=0;" edge="1" parent="EyzkFN8rhLwsbmcGBCVb-1" source="G2aimLRCcps8fE1EPNxw-6">
          <mxGeometry relative="1" as="geometry">
            <mxPoint x="1380" y="253" as="targetPoint" />
            <Array as="points">
              <mxPoint x="1430" y="293" />
            </Array>
          </mxGeometry>
        </mxCell>
        <mxCell id="G2aimLRCcps8fE1EPNxw-2" style="edgeStyle=orthogonalEdgeStyle;rounded=0;orthogonalLoop=1;jettySize=auto;html=1;exitX=0.5;exitY=1;exitDx=0;exitDy=0;entryX=0.5;entryY=0;entryDx=0;entryDy=0;" edge="1" parent="EyzkFN8rhLwsbmcGBCVb-1" source="G2aimLRCcps8fE1EPNxw-6" target="G2aimLRCcps8fE1EPNxw-7">
          <mxGeometry relative="1" as="geometry" />
        </mxCell>
        <mxCell id="G2aimLRCcps8fE1EPNxw-3" style="edgeStyle=orthogonalEdgeStyle;rounded=0;orthogonalLoop=1;jettySize=auto;html=1;exitX=0.5;exitY=1;exitDx=0;exitDy=0;entryX=0.5;entryY=0;entryDx=0;entryDy=0;" edge="1" parent="EyzkFN8rhLwsbmcGBCVb-1" source="G2aimLRCcps8fE1EPNxw-7" target="G2aimLRCcps8fE1EPNxw-8">
          <mxGeometry relative="1" as="geometry" />
        </mxCell>
        <mxCell id="G2aimLRCcps8fE1EPNxw-4" style="edgeStyle=orthogonalEdgeStyle;rounded=0;orthogonalLoop=1;jettySize=auto;html=1;exitX=1;exitY=0.75;exitDx=0;exitDy=0;" edge="1" parent="EyzkFN8rhLwsbmcGBCVb-1">
          <mxGeometry relative="1" as="geometry">
            <mxPoint x="1379" y="453" as="targetPoint" />
            <mxPoint x="1379" y="493" as="sourcePoint" />
            <Array as="points">
              <mxPoint x="1429" y="493" />
            </Array>
          </mxGeometry>
        </mxCell>
        <mxCell id="G2aimLRCcps8fE1EPNxw-5" style="edgeStyle=orthogonalEdgeStyle;rounded=0;orthogonalLoop=1;jettySize=auto;html=1;exitX=1;exitY=0.75;exitDx=0;exitDy=0;" edge="1" parent="EyzkFN8rhLwsbmcGBCVb-1">
          <mxGeometry relative="1" as="geometry">
            <mxPoint x="1379" y="653" as="targetPoint" />
            <mxPoint x="1379" y="693" as="sourcePoint" />
            <Array as="points">
              <mxPoint x="1429" y="693" />
            </Array>
          </mxGeometry>
        </mxCell>
        <mxCell id="G2aimLRCcps8fE1EPNxw-9" value="temp_blink == 0 /&lt;br&gt;&amp;nbsp; &amp;nbsp; &amp;nbsp; &amp;nbsp;&amp;nbsp;&lt;span&gt;		&lt;/span&gt;temp_blink = TEMP_BLINK&lt;br&gt;LVR TOGGLE" style="text;html=1;align=center;verticalAlign=middle;resizable=0;points=[];autosize=1;" vertex="1" parent="EyzkFN8rhLwsbmcGBCVb-1">
          <mxGeometry x="1400" y="253" width="190" height="50" as="geometry" />
        </mxCell>
        <mxCell id="G2aimLRCcps8fE1EPNxw-10" value="temp_aux == 0" style="text;html=1;align=center;verticalAlign=middle;resizable=0;points=[];autosize=1;" vertex="1" parent="EyzkFN8rhLwsbmcGBCVb-1">
          <mxGeometry x="1307" y="353" width="100" height="20" as="geometry" />
        </mxCell>
        <mxCell id="G2aimLRCcps8fE1EPNxw-11" value="key_getPressEv(BOARD_SW_ID_3) &amp;amp;&amp;amp; Autos&amp;nbsp;&amp;gt; 0 /&lt;br&gt;Autos --" style="text;html=1;align=center;verticalAlign=middle;resizable=0;points=[];autosize=1;" vertex="1" parent="EyzkFN8rhLwsbmcGBCVb-1">
          <mxGeometry x="1430" y="453" width="290" height="30" as="geometry" />
        </mxCell>
        <mxCell id="G2aimLRCcps8fE1EPNxw-12" value="Autos == 0 /&amp;nbsp;temp_aux = TEMP_5SEG" style="text;html=1;align=center;verticalAlign=middle;resizable=0;points=[];autosize=1;" vertex="1" parent="EyzkFN8rhLwsbmcGBCVb-1">
          <mxGeometry x="1307" y="543" width="220" height="20" as="geometry" />
        </mxCell>
        <mxCell id="G2aimLRCcps8fE1EPNxw-13" style="edgeStyle=orthogonalEdgeStyle;rounded=0;orthogonalLoop=1;jettySize=auto;html=1;" edge="1" parent="EyzkFN8rhLwsbmcGBCVb-1">
          <mxGeometry relative="1" as="geometry">
            <mxPoint x="1330" y="723" as="targetPoint" />
            <mxPoint x="1284" y="723" as="sourcePoint" />
            <Array as="points">
              <mxPoint x="1270" y="723" />
              <mxPoint x="1270" y="763" />
              <mxPoint x="1330" y="763" />
              <mxPoint x="1330" y="723" />
            </Array>
          </mxGeometry>
        </mxCell>
        <mxCell id="G2aimLRCcps8fE1EPNxw-14" value="key_getPressEv(BOARD_SW_ID_3) &amp;amp;&amp;amp; Autos&amp;nbsp;&amp;gt; 0 /&lt;br&gt;Autos --" style="text;html=1;align=center;verticalAlign=middle;resizable=0;points=[];autosize=1;" vertex="1" parent="EyzkFN8rhLwsbmcGBCVb-1">
          <mxGeometry x="1430" y="653" width="290" height="30" as="geometry" />
        </mxCell>
        <mxCell id="G2aimLRCcps8fE1EPNxw-15" value="&lt;span style=&quot;color: rgba(0 , 0 , 0 , 0) ; font-family: monospace ; font-size: 0px&quot;&gt;%3CmxGraphModel%3E%3Croot%3E%3CmxCell%20id%3D%220%22%2F%3E%3CmxCell%20id%3D%221%22%20parent%3D%220%22%2F%3E%3CmxCell%20id%3D%222%22%20value%3D%22temp_blink%20%3D%3D%200%20%2F%26lt%3Bbr%26gt%3B%26amp%3Bnbsp%3B%20%26amp%3Bnbsp%3B%20%26amp%3Bnbsp%3B%20%26amp%3Bnbsp%3B%26amp%3Bnbsp%3B%26lt%3Bspan%26gt%3B%26%239%3B%26%239%3B%26lt%3B%2Fspan%26gt%3Btemp_blink%20%3D%20TEMP_BLINK%26lt%3Bbr%26gt%3BLVR%20TOGGLE%22%20style%3D%22text%3Bhtml%3D1%3Balign%3Dcenter%3BverticalAlign%3Dmiddle%3Bresizable%3D0%3Bpoints%3D%5B%5D%3Bautosize%3D1%3B%22%20vertex%3D%221%22%20parent%3D%221%22%3E%3CmxGeometry%20x%3D%22490%22%20y%3D%22100%22%20width%3D%22190%22%20height%3D%2250%22%20as%3D%22geometry%22%2F%3E%3C%2FmxCell%3E%3C%2Froot%3E%3C%2FmxGraphModel%3E&lt;/span&gt;" style="text;html=1;align=center;verticalAlign=middle;resizable=0;points=[];autosize=1;" vertex="1" parent="EyzkFN8rhLwsbmcGBCVb-1">
          <mxGeometry x="1347" y="800" width="20" height="20" as="geometry" />
        </mxCell>
        <mxCell id="G2aimLRCcps8fE1EPNxw-16" value="temp_blink == 0 /&lt;br&gt;&amp;nbsp; &amp;nbsp; &amp;nbsp; &amp;nbsp;&amp;nbsp;&lt;span&gt;		&lt;/span&gt;temp_blink = TEMP_BLINK&lt;br&gt;LVS TOGGLE" style="text;html=1;align=center;verticalAlign=middle;resizable=0;points=[];autosize=1;" vertex="1" parent="EyzkFN8rhLwsbmcGBCVb-1">
          <mxGeometry x="1205" y="770" width="190" height="50" as="geometry" />
        </mxCell>
        <mxCell id="G2aimLRCcps8fE1EPNxw-17" style="edgeStyle=orthogonalEdgeStyle;rounded=0;orthogonalLoop=1;jettySize=auto;html=1;" edge="1" parent="EyzkFN8rhLwsbmcGBCVb-1">
          <mxGeometry relative="1" as="geometry">
            <mxPoint x="1220" y="670.5" as="sourcePoint" />
            <mxPoint x="1220" y="273" as="targetPoint" />
            <Array as="points">
              <mxPoint x="1150" y="671" />
              <mxPoint x="1150" y="273" />
            </Array>
          </mxGeometry>
        </mxCell>
        <mxCell id="G2aimLRCcps8fE1EPNxw-18" value="temp_aux == 0 /&amp;nbsp;Sec = true" style="text;html=1;align=center;verticalAlign=middle;resizable=0;points=[];autosize=1;" vertex="1" parent="EyzkFN8rhLwsbmcGBCVb-1">
          <mxGeometry x="990" y="423" width="160" height="20" as="geometry" />
        </mxCell>
        <mxCell id="G2aimLRCcps8fE1EPNxw-6" value="SENSOR_AVISO" style="swimlane;childLayout=stackLayout;horizontal=1;startSize=30;horizontalStack=0;rounded=1;fontSize=14;fontStyle=0;strokeWidth=2;resizeParent=0;resizeLast=1;shadow=0;dashed=0;align=center;" vertex="1" parent="EyzkFN8rhLwsbmcGBCVb-1">
          <mxGeometry x="1220" y="203" width="160" height="120" as="geometry" />
        </mxCell>
        <mxCell id="G2aimLRCcps8fE1EPNxw-7" value="SENSOR_PASO" style="swimlane;childLayout=stackLayout;horizontal=1;startSize=30;horizontalStack=0;rounded=1;fontSize=14;fontStyle=0;strokeWidth=2;resizeParent=0;resizeLast=1;shadow=0;dashed=0;align=center;" vertex="1" parent="EyzkFN8rhLwsbmcGBCVb-1">
          <mxGeometry x="1220" y="403" width="160" height="120" as="geometry" />
        </mxCell>
        <mxCell id="G2aimLRCcps8fE1EPNxw-8" value="SENSOR_CORTE" style="swimlane;childLayout=stackLayout;horizontal=1;startSize=30;horizontalStack=0;rounded=1;fontSize=14;fontStyle=0;strokeWidth=2;resizeParent=0;resizeLast=1;shadow=0;dashed=0;align=center;" vertex="1" parent="EyzkFN8rhLwsbmcGBCVb-1">
          <mxGeometry x="1220" y="603" width="160" height="120" as="geometry" />
        </mxCell>
      </root>
    </mxGraphModel>
  </diagram>
</mxfile>
